<svg fill="none" height="64" viewBox="0 0 260 64" width="260" xmlns="http://www.w3.org/2000/svg">
  <rect fill="url(#petdex-wordmark-bg)" height="56" rx="18" width="56" x="4" y="4"/>
  <path d="M20.5 45.5V19h15.25c6.45 0 10.75 4.12 10.75 10.18S42.2 39.4 35.75 39.4H29v6.1h-8.5Zm8.5-13.02h5.55c2.16 0 3.48-1.22 3.48-3.3 0-2.03-1.32-3.24-3.48-3.24H29v6.54Z" fill="white"/>
  <circle cx="23" cy="16" fill="white" r="4.4"/>
  <circle cx="41" cy="16" fill="white" r="4.4"/>
  <circle cx="25.5" cy="17.2" fill="#4456ff" r="1.15"/>
  <circle cx="39.5" cy="17.2" fill="#4456ff" r="1.15"/>
  <path d="M48 41.2h4.8v4.8H48v-4.8Zm-5.8 5.8H47v4.8h-4.8V47Z" fill="#B9D8FF"/>
  <path d="M82.4 45V18.6h15.2c6.4 0 10.8 4.1 10.8 10.2S104 39 97.6 39h-6.7v6h-8.5Zm8.5-13h5.5c2.2 0 3.5-1.2 3.5-3.2s-1.3-3.2-3.5-3.2h-5.5V32Zm30.4 13.5c-6.7 0-11.3-4.4-11.3-10.9s4.6-10.9 11.1-10.9c6.4 0 10.5 4.2 10.5 10.7 0 .7-.1 1.6-.2 2.3h-13.8c.5 1.9 1.9 2.9 4.1 2.9 1.8 0 3.2-.6 4.5-1.8l4.1 4.3c-2.1 2.2-5.1 3.4-9 3.4Zm-3.7-12.9h6.9c-.3-2-1.5-3.1-3.3-3.1-1.9 0-3.2 1.1-3.6 3.1Zm25.5 12.8c-5.3 0-8-2.7-8-7.9v-7h-3.2v-6.2h3.2v-5.2h7.8v5.2h5.2v6.2h-5.2v6.1c0 1.4.8 2.2 2.3 2.2.9 0 1.9-.2 2.9-.7v6.2c-1.4.7-3.2 1.1-5 1.1Zm17.5.1c-6.2 0-10.4-4.4-10.4-10.9s4.2-10.9 10.4-10.9c2.5 0 4.6.8 6.1 2.3V17h7.9v28h-7.6v-2.4c-1.5 1.9-3.7 2.9-6.4 2.9Zm2.3-6.8c2.3 0 3.9-1.7 3.9-4.1 0-2.5-1.6-4.1-3.9-4.1s-3.9 1.6-3.9 4.1c0 2.4 1.6 4.1 3.9 4.1Zm26.7 6.8c-6.7 0-11.3-4.4-11.3-10.9s4.6-10.9 11.1-10.9c6.4 0 10.5 4.2 10.5 10.7 0 .7-.1 1.6-.2 2.3h-13.8c.5 1.9 1.9 2.9 4.1 2.9 1.8 0 3.2-.6 4.5-1.8l4.1 4.3c-2.1 2.2-5.1 3.4-9 3.4Zm-3.7-12.9h6.9c-.3-2-1.5-3.1-3.3-3.1-1.9 0-3.2 1.1-3.6 3.1ZM202 45l8.1-10.8-7.5-9.9h8.8l3.3 4.5 3.2-4.5h8.5l-7.5 9.8 8.2 10.9h-8.9l-3.7-5.1-3.7 5.1H202Z" fill="#050505"/>
  <defs>
    <linearGradient gradientUnits="userSpaceOnUse" id="petdex-wordmark-bg" x1="12" x2="54" y1="9" y2="58">
      <stop stop-color="#111111"/>
      <stop offset="0.58" stop-color="#3847F5"/>
      <stop offset="1" stop-color="#8DAAFF"/>
    </linearGradient>
  </defs>
</svg>
